<svg width="235" height="77" viewBox="0 0 235 77" fill="none" xmlns="http://www.w3.org/2000/svg">
<path d="M17.0519 44.6172H23.2076L29.7091 60.479H29.9857L36.4872 44.6172H42.6429V68.2255H37.8014V52.8594H37.6054L31.4958 68.1102H28.199L22.0894 52.8017H21.8934V68.2255H17.0519V44.6172ZM61.3376 44.6172H66.329V59.9488C66.329 61.6702 65.9179 63.1765 65.0956 64.4675C64.281 65.7586 63.1397 66.7653 61.6719 67.4877C60.2041 68.2024 58.4942 68.5598 56.5422 68.5598C54.5825 68.5598 52.8688 68.2024 51.4009 67.4877C49.9331 66.7653 48.7919 65.7586 47.9773 64.4675C47.1626 63.1765 46.7553 61.6702 46.7553 59.9488V44.6172H51.7467V59.5222C51.7467 60.4214 51.9427 61.2206 52.3346 61.92C52.7343 62.6193 53.2953 63.1688 54.0177 63.5684C54.74 63.968 55.5816 64.1678 56.5422 64.1678C57.5105 64.1678 58.352 63.968 59.0667 63.5684C59.7891 63.1688 60.3462 62.6193 60.7382 61.92C61.1378 61.2206 61.3376 60.4214 61.3376 59.5222V44.6172ZM70.4357 68.2255V44.6172H75.4271V54.3579H85.5597V44.6172H90.5396V68.2255H85.5597V58.4732H75.4271V68.2255H70.4357ZM98.7241 68.2255H93.3754L101.525 44.6172H107.958L116.096 68.2255H110.747L104.834 50.0121H104.649L98.7241 68.2255ZM98.3898 58.9459H111.024V62.8422H98.3898V58.9459ZM118.938 44.6172H125.093L131.595 60.479H131.871L138.373 44.6172H144.529V68.2255H139.687V52.8594H139.491L133.382 68.1102H130.085L123.975 52.8017H123.779V68.2255H118.938V44.6172ZM148.641 44.6172H154.797L161.298 60.479H161.575L168.076 44.6172H174.232V68.2255H169.39V52.8594H169.195L163.085 68.1102H159.788L153.679 52.8017H153.483V68.2255H148.641V44.6172ZM178.344 68.2255V44.6172H194.252V48.7325H183.336V54.3579H193.434V58.4732H183.336V64.1102H194.299V68.2255H178.344ZM206.59 68.2255H198.221V44.6172H206.659C209.034 44.6172 211.078 45.0898 212.791 46.0351C214.505 46.9727 215.823 48.3214 216.745 50.0812C217.675 51.8411 218.14 53.9468 218.14 56.3983C218.14 58.8575 217.675 60.9709 216.745 62.7384C215.823 64.506 214.498 65.8624 212.768 66.8076C211.047 67.7529 208.987 68.2255 206.59 68.2255ZM203.212 63.9488H206.382C207.858 63.9488 209.099 63.6875 210.106 63.1649C211.12 62.6347 211.881 61.8162 212.388 60.7096C212.903 59.5953 213.16 58.1582 213.16 56.3983C213.16 54.6538 212.903 53.2282 212.388 52.1216C211.881 51.015 211.124 50.2003 210.117 49.6778C209.11 49.1552 207.869 48.8939 206.394 48.8939H203.212V63.9488Z" fill="#4C4647"/>
<path d="M2.05189 31.5766V7.96828H11.5044C13.2412 7.96828 14.6899 8.22572 15.8503 8.74062C17.0107 9.25551 17.883 9.97022 18.467 10.8847C19.0511 11.7916 19.3431 12.8367 19.3431 14.0202C19.3431 14.9424 19.1587 15.7532 18.7898 16.4525C18.4209 17.1442 17.9137 17.7128 17.2682 18.1586C16.6303 18.5966 15.9002 18.9079 15.078 19.0923V19.3229C15.9771 19.3613 16.8186 19.6149 17.6025 20.0837C18.394 20.5524 19.0357 21.2095 19.5276 22.0549C20.0194 22.8925 20.2653 23.8916 20.2653 25.052C20.2653 26.3047 19.9541 27.4228 19.3316 28.4065C18.7168 29.3825 17.8061 30.1548 16.5996 30.7235C15.393 31.2922 13.906 31.5766 12.1384 31.5766H2.05189ZM7.04329 27.4958H11.1125C12.5035 27.4958 13.5179 27.2307 14.1558 26.7004C14.7936 26.1625 15.1125 25.4478 15.1125 24.5563C15.1125 23.9031 14.955 23.3267 14.6399 22.8272C14.3248 22.3277 13.8753 21.9357 13.2912 21.6514C12.7148 21.3671 12.027 21.2249 11.2278 21.2249H7.04329V27.4958ZM7.04329 17.8473H10.7436C11.4276 17.8473 12.0347 17.7282 12.565 17.49C13.1029 17.2441 13.5256 16.8982 13.833 16.4525C14.1481 16.0068 14.3056 15.4727 14.3056 14.8502C14.3056 13.9972 14.0021 13.3093 13.3949 12.7868C12.7955 12.2642 11.9425 12.0029 10.8358 12.0029H7.04329V17.8473ZM27.5824 31.5766H22.2336L30.3836 7.96828H36.8159L44.9543 31.5766H39.6056L33.692 13.3631H33.5075L27.5824 31.5766ZM27.2481 22.2969H39.8822V26.1932H27.2481V22.2969ZM47.7958 31.5766V7.96828H57.2484C58.9852 7.96828 60.4338 8.22572 61.5942 8.74062C62.7547 9.25551 63.6269 9.97022 64.211 10.8847C64.795 11.7916 65.0871 12.8367 65.0871 14.0202C65.0871 14.9424 64.9026 15.7532 64.5337 16.4525C64.1649 17.1442 63.6577 17.7128 63.0121 18.1586C62.3743 18.5966 61.6442 18.9079 60.8219 19.0923V19.3229C61.721 19.3613 62.5625 19.6149 63.3464 20.0837C64.138 20.5524 64.7797 21.2095 65.2715 22.0549C65.7633 22.8925 66.0093 23.8916 66.0093 25.052C66.0093 26.3047 65.698 27.4228 65.0755 28.4065C64.4607 29.3825 63.5501 30.1548 62.3435 30.7235C61.137 31.2922 59.6499 31.5766 57.8824 31.5766H47.7958ZM52.7872 27.4958H56.8564C58.2474 27.4958 59.2618 27.2307 59.8997 26.7004C60.5375 26.1625 60.8565 25.4478 60.8565 24.5563C60.8565 23.9031 60.6989 23.3267 60.3838 22.8272C60.0688 22.3277 59.6192 21.9357 59.0351 21.6514C58.4588 21.3671 57.771 21.2249 56.9717 21.2249H52.7872V27.4958ZM52.7872 17.8473H56.4876C57.1715 17.8473 57.7786 17.7282 58.3089 17.49C58.8469 17.2441 59.2695 16.8982 59.5769 16.4525C59.892 16.0068 60.0496 15.4727 60.0496 14.8502C60.0496 13.9972 59.746 13.3093 59.1389 12.7868C58.5395 12.2642 57.6864 12.0029 56.5798 12.0029H52.7872V17.8473ZM73.3263 31.5766H67.9776L76.1275 7.96828H82.5598L90.6983 31.5766H85.3495L79.4359 13.3631H79.2515L73.3263 31.5766ZM72.992 22.2969H85.6262V26.1932H72.992V22.2969ZM101.053 31.5766V7.96828H116.684V12.0836H106.044V17.709H115.647V21.8243H106.044V31.5766H101.053ZM120.041 31.5766V7.96828H129.356C131.139 7.96828 132.66 8.2872 133.921 8.92506C135.189 9.55523 136.153 10.4505 136.814 11.611C137.483 12.7637 137.817 14.1201 137.817 15.6802C137.817 17.2479 137.479 18.5966 136.802 19.7263C136.126 20.8483 135.146 21.709 133.863 22.3085C132.587 22.9079 131.043 23.2076 129.229 23.2076H122.993V19.196H128.422C129.375 19.196 130.166 19.0654 130.797 18.8041C131.427 18.5428 131.896 18.1509 132.203 17.6283C132.518 17.1057 132.676 16.4563 132.676 15.6802C132.676 14.8963 132.518 14.2354 132.203 13.6974C131.896 13.1595 131.423 12.7522 130.785 12.4755C130.155 12.1912 129.36 12.049 128.399 12.049H125.033V31.5766H120.041ZM132.791 20.833L138.658 31.5766H133.148L127.408 20.833H132.791ZM146.336 7.96828V31.5766H141.344V7.96828H146.336ZM143.869 5.68584C143.139 5.68584 142.512 5.44376 141.99 4.9596C141.467 4.46776 141.206 3.87986 141.206 3.1959C141.206 2.51962 141.467 1.9394 141.99 1.45525C142.512 0.963409 143.135 0.717489 143.857 0.717489C144.595 0.717489 145.221 0.963409 145.736 1.45525C146.259 1.9394 146.52 2.51962 146.52 3.1959C146.52 3.87986 146.259 4.46776 145.736 4.9596C145.221 5.44376 144.599 5.68584 143.869 5.68584ZM163.249 14.758C163.157 13.8281 162.761 13.1057 162.062 12.5908C161.363 12.0759 160.414 11.8185 159.215 11.8185C158.4 11.8185 157.712 11.9337 157.151 12.1643C156.59 12.3871 156.16 12.6984 155.86 13.098C155.568 13.4976 155.422 13.951 155.422 14.4583C155.407 14.8809 155.495 15.2498 155.687 15.5649C155.887 15.88 156.16 16.1528 156.506 16.3833C156.852 16.6062 157.251 16.8022 157.705 16.9712C158.158 17.1326 158.642 17.271 159.157 17.3862L161.278 17.8934C162.308 18.124 163.253 18.4314 164.114 18.8156C164.975 19.1999 165.72 19.6725 166.35 20.2335C166.98 20.7945 167.468 21.4554 167.814 22.2163C168.168 22.9771 168.348 23.8493 168.356 24.833C168.348 26.2778 167.979 27.5304 167.249 28.5909C166.527 29.6438 165.482 30.4622 164.114 31.0463C162.754 31.6227 161.113 31.9109 159.192 31.9109C157.286 31.9109 155.626 31.6188 154.212 31.0348C152.805 30.4507 151.707 29.5862 150.915 28.4411C150.131 27.2883 149.72 25.8628 149.682 24.1644H154.512C154.565 24.9559 154.792 25.6169 155.192 26.1471C155.599 26.6697 156.141 27.0655 156.817 27.3345C157.501 27.5957 158.273 27.7264 159.134 27.7264C159.979 27.7264 160.713 27.6034 161.336 27.3575C161.966 27.1116 162.454 26.7696 162.8 26.3316C163.146 25.8935 163.319 25.3902 163.319 24.8215C163.319 24.2912 163.161 23.8455 162.846 23.4843C162.539 23.1231 162.085 22.8157 161.486 22.5621C160.894 22.3085 160.168 22.0779 159.307 21.8704L156.736 21.2249C154.746 20.7407 153.174 19.9838 152.022 18.954C150.869 17.9242 150.296 16.537 150.304 14.7925C150.296 13.3631 150.677 12.1143 151.445 11.0461C152.221 9.9779 153.286 9.14408 154.638 8.54465C155.991 7.94522 157.528 7.64551 159.249 7.64551C161.002 7.64551 162.531 7.94522 163.837 8.54465C165.151 9.14408 166.174 9.9779 166.904 11.0461C167.634 12.1143 168.01 13.3516 168.033 14.758H163.249ZM171.713 31.5766V7.96828H187.621V12.0836H176.705V17.709H186.803V21.8243H176.705V27.4613H187.667V31.5766H171.713ZM206.172 7.96828H211.163V23.2998C211.163 25.0213 210.752 26.5275 209.93 27.8186C209.115 29.1097 207.974 30.1164 206.506 30.8388C205.038 31.5535 203.329 31.9109 201.377 31.9109C199.417 31.9109 197.703 31.5535 196.235 30.8388C194.767 30.1164 193.626 29.1097 192.812 27.8186C191.997 26.5275 191.59 25.0213 191.59 23.2998V7.96828H196.581V22.8733C196.581 23.7725 196.777 24.5717 197.169 25.271C197.569 25.9704 198.13 26.5198 198.852 26.9195C199.574 27.3191 200.416 27.5189 201.377 27.5189C202.345 27.5189 203.186 27.3191 203.901 26.9195C204.623 26.5198 205.181 25.9704 205.573 25.271C205.972 24.5717 206.172 23.7725 206.172 22.8733V7.96828ZM215.27 31.5766V7.96828H224.584C226.367 7.96828 227.889 8.2872 229.149 8.92506C230.417 9.55523 231.382 10.4505 232.043 11.611C232.711 12.7637 233.045 14.1201 233.045 15.6802C233.045 17.2479 232.707 18.5966 232.031 19.7263C231.355 20.8483 230.375 21.709 229.091 22.3085C227.816 22.9079 226.271 23.2076 224.457 23.2076H218.221V19.196H223.651C224.603 19.196 225.395 19.0654 226.025 18.8041C226.655 18.5428 227.124 18.1509 227.432 17.6283C227.747 17.1057 227.904 16.4563 227.904 15.6802C227.904 14.8963 227.747 14.2354 227.432 13.6974C227.124 13.1595 226.652 12.7522 226.014 12.4755C225.383 12.1912 224.588 12.049 223.627 12.049H220.261V31.5766H215.27ZM228.019 20.833L233.887 31.5766H228.377L222.636 20.833H228.019Z" fill="#4C4647"/>
</svg>
